<svg viewBox="0 0 100 100" xmlns="http://www.w3.org/2000/svg"><defs><linearGradient id="a" x1="0" x2="1" y1="1" y2="0"><stop stop-color="rgba(252, 196, 54, 1)" offset="0%"/><stop stop-color="rgba(252, 220, 54, 1)" offset="100%"/></linearGradient></defs><path fill="url(#a)" d="M25.7-29.5c7.4 5.1 13 13.4 14.8 22.5 1.7 9.1-.5 19-7.3 21.8-6.8 2.9-18.3-1.3-26.6.5s-13.4 9.5-15.8 9.1c-2.5-.5-2.3-9.2-7.1-15.8C-21.1 2-30.8-2.6-31.5-6.7c-.7-4.2 7.7-7.9 14.5-13.2 6.7-5.2 11.9-12 19-14.4 7.1-2.4 16.3-.4 23.7 4.8z" transform="translate(50 50)" style="transition:all .3s ease 0s"/></svg>