<svg width="173" height="40" fill="none" xmlns="http://www.w3.org/2000/svg"><path d="m63.367 28 2.78-13.059h4.409c1.056 0 1.841.236 2.355.709.513.466.77 1.089.77 1.868 0 .466-.073.938-.221 1.416-.148.478-.357.921-.629 1.328a3.783 3.783 0 0 1-.974 1.01 2.542 2.542 0 0 1-1.23.469c.271.023.522.091.752.203.236.107.425.275.567.505.148.224.221.522.221.894 0 .16-.026.38-.08.664-.053.284-.117.6-.194.947-.077.343-.154.688-.23 1.036-.077.343-.142.658-.195.948a4.02 4.02 0 0 0-.08.681c0 .089.003.169.01.24a.444.444 0 0 0 .043.141H69.92a1.053 1.053 0 0 1-.045-.354c0-.154.024-.363.071-.629.053-.271.115-.563.186-.876.077-.319.15-.635.221-.947.071-.32.13-.611.177-.877a3.39 3.39 0 0 0 .08-.62c0-.448-.16-.773-.478-.974-.319-.2-.758-.3-1.32-.3h-3.443l.78-.523-1.302 6.1h-1.479zm2.842-6.4-.593-.506h3.488a2.76 2.76 0 0 0 1.505-.425 3.157 3.157 0 0 0 1.071-1.124 3.04 3.04 0 0 0 .399-1.532c0-.543-.157-.967-.47-1.274-.312-.313-.82-.47-1.522-.47h-3.391l.823-.85-1.31 6.18zM78.377 16.27l.86-.86-1.25 5.897-.265-.522h5.011l-.274 1.328h-5.011l.478-.523-1.257 5.94-.505-.858h6.304L82.184 28H75.05l2.78-13.059h7.135l-.283 1.328h-6.303zM95.35 23.458a6.07 6.07 0 0 1-.62 1.62 6.325 6.325 0 0 1-1.169 1.532 5.775 5.775 0 0 1-1.682 1.133c-.643.29-1.366.434-2.169.434-.927 0-1.688-.204-2.284-.61-.59-.408-1.027-.966-1.31-1.674-.278-.714-.416-1.526-.416-2.435 0-1.103.15-2.172.451-3.205a9.592 9.592 0 0 1 1.32-2.78 6.748 6.748 0 0 1 2.089-1.965c.82-.484 1.744-.726 2.77-.726.957 0 1.724.195 2.302.584.585.384 1.007.874 1.266 1.47.26.596.39 1.21.39 1.841 0 .16-.009.307-.026.443a2.63 2.63 0 0 1-.071.363h-1.514c.017-.088.035-.206.053-.354a2.868 2.868 0 0 0-.248-1.709 2.128 2.128 0 0 0-.85-.92c-.384-.23-.874-.346-1.47-.346-.796 0-1.502.213-2.116.638-.613.425-1.13.991-1.549 1.7a8.651 8.651 0 0 0-.947 2.363 10.87 10.87 0 0 0-.319 2.612c0 1.086.216 1.915.646 2.488.431.572 1.092.859 1.984.859a3.66 3.66 0 0 0 1.451-.284 4.053 4.053 0 0 0 1.187-.779c.348-.324.634-.684.859-1.08.23-.401.39-.805.478-1.213h1.514zM97.565 28l2.771-13.059h1.496L99.07 28h-1.505zM104.31 28h-1.514l2.78-13.059h3.577c.891 0 1.611.154 2.16.46.549.308.95.72 1.204 1.24.26.514.389 1.086.389 1.718 0 .779-.129 1.481-.389 2.107a4.623 4.623 0 0 1-1.107 1.602 4.91 4.91 0 0 1-1.708 1.018c-.656.237-1.382.355-2.178.355h-2.24L104.31 28zm1.089-5.117-.514-.77h2.648c.784 0 1.466-.157 2.045-.47a3.34 3.34 0 0 0 1.345-1.31c.319-.56.478-1.216.478-1.965 0-.449-.091-.827-.274-1.134-.177-.312-.46-.551-.85-.717-.384-.165-.885-.248-1.505-.248h-2.647l.859-.858-1.585 7.472zM117.46 16.27l.859-.86-1.248 5.897-.266-.522h5.011l-.274 1.328h-5.011l.478-.523-1.257 5.94-.505-.858h6.304L121.267 28h-7.135l2.78-13.059h7.135l-.283 1.328h-6.304zM128.73 28.177c-.75 0-1.402-.106-1.957-.319-.555-.218-.983-.537-1.284-.956-.301-.425-.451-.95-.451-1.576 0-.289.021-.555.062-.797.047-.241.109-.522.186-.84h1.505a9.93 9.93 0 0 0-.168.779c-.03.212-.045.422-.045.628 0 .626.195 1.068.585 1.328.395.26.968.39 1.717.39.638 0 1.207-.086 1.709-.257.502-.177.897-.446 1.186-.806.289-.366.434-.835.434-1.407 0-.561-.23-1.021-.691-1.382-.454-.36-1.074-.666-1.859-.92a7.778 7.778 0 0 1-1.611-.744 3.672 3.672 0 0 1-1.124-1.089c-.272-.425-.408-.918-.408-1.478 0-.632.121-1.193.363-1.683.248-.49.591-.902 1.027-1.239.437-.336.945-.59 1.523-.761a6.385 6.385 0 0 1 1.877-.266c.75 0 1.399.106 1.948.319.555.206.982.513 1.283.92.301.408.452.912.452 1.514 0 .26-.021.52-.062.78-.041.26-.094.53-.159.814h-1.514c.065-.271.112-.514.141-.726.036-.218.053-.434.053-.646 0-.602-.197-1.021-.593-1.257-.395-.236-.965-.355-1.708-.355-.602 0-1.139.08-1.612.24-.472.159-.844.41-1.115.752-.272.337-.407.776-.407 1.32 0 .619.242 1.106.726 1.46.484.348 1.13.664 1.938.947a7.444 7.444 0 0 1 1.629.77c.455.296.803.644 1.045 1.045.248.402.372.87.372 1.408 0 .867-.221 1.608-.664 2.222-.437.608-1.033 1.071-1.788 1.39-.75.319-1.597.478-2.541.478zM143.012 28.198c-.659 0-1.246-.104-1.761-.31-.516-.212-.922-.518-1.22-.919-.298-.4-.447-.888-.447-1.46 0-.659.186-1.192.559-1.598.372-.413.856-.725 1.451-.937a7.573 7.573 0 0 1 1.89-.42c.963-.092 1.618-.172 1.968-.241.355-.075.532-.2.532-.378v-.017c0-.275-.146-.499-.438-.67-.286-.172-.681-.258-1.185-.258-.533 0-.937.097-1.212.292-.269.189-.403.478-.403.868h-3.024c0-.75.206-1.38.618-1.89.418-.516.979-.905 1.684-1.169.704-.263 1.492-.395 2.362-.395.825 0 1.59.123 2.294.37.71.246 1.283.62 1.718 1.125.441.504.662 1.145.662 1.924v3.746c0 .24.006.475.017.704.012.224.043.43.095.619.063.206.14.38.232.524.097.143.174.24.231.292h-2.998a2.232 2.232 0 0 1-.206-.266 2.241 2.241 0 0 1-.223-.456 4.466 4.466 0 0 1-.164-.661 5.085 5.085 0 0 1-.051-.773l.653.446a2.468 2.468 0 0 1-.791 1.023c-.36.286-.787.507-1.28.661a5.368 5.368 0 0 1-1.563.224zm.876-2.226c.355 0 .696-.071 1.022-.214.327-.143.596-.372.808-.688.212-.314.318-.736.318-1.262v-.628l.773.688a9.089 9.089 0 0 1-1.289.335c-.481.086-.95.152-1.408.197-.487.052-.851.135-1.092.25a.585.585 0 0 0-.36.567c0 .252.103.44.309.567.212.126.518.189.919.189zM150.843 31.754V18.876h3.067v12.878h-3.067zm5.825-3.54a3.541 3.541 0 0 1-1.985-.592 4.36 4.36 0 0 1-1.426-1.607c-.355-.675-.532-1.428-.532-2.259V23.602l1.185-.026v.103c0 .4.092.747.275 1.04.189.286.43.506.722.66.297.15.604.224.919.224.51 0 .962-.177 1.357-.533.395-.355.593-.916.593-1.683 0-.768-.198-1.32-.593-1.658a2.019 2.019 0 0 0-2.268-.292 1.83 1.83 0 0 0-.721.635c-.189.275-.284.616-.284 1.023l-1.185-.078c0-.836.177-1.578.532-2.225a4.082 4.082 0 0 1 1.426-1.529 3.658 3.658 0 0 1 1.985-.567c.739 0 1.432.18 2.079.541.653.361 1.18.89 1.581 1.59.406.698.609 1.552.609 2.56 0 1.06-.197 1.947-.592 2.663-.395.716-.917 1.257-1.564 1.623a4.265 4.265 0 0 1-2.113.542zM162.404 31.754V18.876h3.067v12.878h-3.067zm5.825-3.54a3.539 3.539 0 0 1-1.985-.592 4.352 4.352 0 0 1-1.426-1.607c-.355-.675-.533-1.428-.533-2.259V23.602l1.186-.026v.103c0 .4.092.747.275 1.04.189.286.429.506.721.66.298.15.605.224.92.224.509 0 .962-.177 1.357-.533.395-.355.593-.916.593-1.683 0-.768-.198-1.32-.593-1.658a2.015 2.015 0 0 0-2.268-.292 1.833 1.833 0 0 0-.722.635c-.189.275-.283.616-.283 1.023l-1.186-.078c0-.836.178-1.578.533-2.225a4.074 4.074 0 0 1 1.426-1.529 3.655 3.655 0 0 1 1.985-.567c.738 0 1.431.18 2.079.541.653.361 1.179.89 1.58 1.59.407.698.61 1.552.61 2.56 0 1.06-.197 1.947-.592 2.663-.396.716-.917 1.257-1.564 1.623a4.267 4.267 0 0 1-2.113.542z" fill="#41197F"/><path fill-rule="evenodd" clip-rule="evenodd" d="M21.302 17.31v-2.662 2.663z" fill="#8958A3"/><path d="M21.302 17.31v-2.662" stroke="#8958A3" stroke-width="1.331" stroke-linecap="square"/><path fill-rule="evenodd" clip-rule="evenodd" d="M40.607 35.95c0-10.662-8.643-19.305-19.305-19.305-10.662 0-19.305 8.643-19.305 19.305h38.61z" fill="#41197F"/><path d="M21.302 19.974c-6.265 0-11.688 3.606-14.306 8.857" stroke="#fff" stroke-width="1.331" stroke-linecap="round"/><path d="M40.94 35.95H1.664a1.664 1.664 0 1 0 0 3.329H40.94a1.664 1.664 0 0 0 0-3.329z" fill="#8958A3"/><path fill-rule="evenodd" clip-rule="evenodd" d="M18.64 13.317h5.325v1.997H18.64v-1.997z" fill="#41197F"/><path fill-rule="evenodd" clip-rule="evenodd" d="M30.32 0c-2.604 0-4.716 1.572-4.716 4.764 0 3.191 7.12 10.368 8.323 10.368 1.202 0 8.323-7.177 8.323-10.368C42.25 1.572 40.138 0 37.533 0a4.687 4.687 0 0 0-3.606 1.694A4.687 4.687 0 0 0 30.32 0z" fill="#E44343"/><path d="M30.719 2.273c-1.705 0-3.41 1.705-2.273 3.978" stroke="#fff" stroke-width="1.513" stroke-linecap="round"/></svg>