<svg width="219" height="181" fill="none" xmlns="http://www.w3.org/2000/svg"><g filter="url(#a)"><path d="M185.214 83.17c0 41.008-33.243 74.25-74.25 74.25s-74.25-33.242-74.25-74.25c0-41.007 33.243-74.25 74.25-74.25s74.25 33.243 74.25 74.25z" fill="#FCDC36"/><path d="M21.416 87.92H205.75l-11.416 45H10l11.416-45z" fill="#41197F"/><path d="M23.666 85.67H208l-11.416 45H12.25l11.416-45z" fill="#FCC436"/><path d="m30.183 123.545 5.984-28.11h9.491c2.275 0 3.964.508 5.07 1.525 1.105 1.003 1.658 2.344 1.658 4.021 0 1.004-.159 2.02-.477 3.049a10.95 10.95 0 0 1-1.353 2.859 8.124 8.124 0 0 1-2.096 2.172c-.8.572-1.684.909-2.65 1.011.585.05 1.125.196 1.62.438.509.229.916.591 1.22 1.086.318.483.477 1.125.477 1.925 0 .343-.057.82-.172 1.429-.114.61-.254 1.29-.419 2.04-.165.736-.33 1.48-.495 2.229a53.833 53.833 0 0 0-.42 2.04c-.114.622-.171 1.111-.171 1.467 0 .191.006.362.019.515a.95.95 0 0 0 .095.304h-3.278c-.063-.165-.095-.419-.095-.762 0-.33.05-.781.152-1.353a66.25 66.25 0 0 1 .4-1.887c.166-.686.325-1.365.477-2.039.153-.686.28-1.315.381-1.887.114-.571.172-1.016.172-1.334 0-.965-.343-1.664-1.03-2.096-.686-.432-1.632-.648-2.839-.648H34.49l1.677-1.124-2.801 13.13h-3.183zm6.118-13.778-1.277-1.087h7.509c1.194 0 2.274-.305 3.24-.914a6.795 6.795 0 0 0 2.306-2.421 6.547 6.547 0 0 0 .857-3.297c0-1.169-.336-2.084-1.01-2.744-.673-.674-1.766-1.01-3.278-1.01H37.35l1.773-1.83-2.821 13.303zM62.495 98.294l1.849-1.849-2.687 12.693-.572-1.125h10.787l-.591 2.859H60.494l1.03-1.124-2.707 12.787-1.086-1.848H71.3l-.61 2.858H55.33l5.983-28.11h15.361l-.61 2.859H62.495zM99.03 113.769c-.241 1.131-.686 2.293-1.334 3.487-.635 1.182-1.474 2.281-2.516 3.297a12.44 12.44 0 0 1-3.62 2.44c-1.386.622-2.942.934-4.67.934-1.995 0-3.634-.439-4.917-1.315-1.27-.877-2.21-2.078-2.82-3.602-.598-1.538-.896-3.285-.896-5.241 0-2.376.324-4.676.972-6.899.66-2.224 1.607-4.218 2.84-5.984 1.245-1.78 2.744-3.19 4.497-4.231 1.766-1.042 3.754-1.563 5.965-1.563 2.058 0 3.71.42 4.955 1.258 1.258.826 2.167 1.88 2.726 3.163a9.831 9.831 0 0 1 .838 3.965c0 .343-.019.66-.057.952a5.589 5.589 0 0 1-.153.782h-3.258c.038-.191.076-.445.114-.763.05-.33.076-.635.076-.914 0-1.017-.203-1.938-.61-2.764-.394-.826-1.003-1.486-1.83-1.982-.825-.495-1.88-.743-3.163-.743-1.715 0-3.233.457-4.555 1.372-1.321.915-2.433 2.135-3.335 3.659-.902 1.525-1.582 3.221-2.039 5.089a23.4 23.4 0 0 0-.686 5.622c0 2.338.464 4.123 1.391 5.355.928 1.233 2.35 1.849 4.27 1.849 1.13 0 2.172-.204 3.125-.61a8.72 8.72 0 0 0 2.553-1.677 9.748 9.748 0 0 0 1.849-2.325 9.162 9.162 0 0 0 1.03-2.611h3.258zM103.799 123.545l5.965-28.11h3.221l-5.946 28.11h-3.24zM118.318 123.545h-3.259l5.985-28.11h7.699c1.919 0 3.469.33 4.65.991 1.182.66 2.046 1.55 2.592 2.668.559 1.106.839 2.338.839 3.697 0 1.678-.28 3.189-.839 4.536a9.944 9.944 0 0 1-2.382 3.45c-1.029.953-2.255 1.683-3.678 2.191-1.411.509-2.973.763-4.689.763h-4.821l-2.097 9.814zm2.344-11.015-1.105-1.658h5.698c1.69 0 3.158-.337 4.403-1.01a7.2 7.2 0 0 0 2.897-2.821c.686-1.207 1.029-2.617 1.029-4.231 0-.965-.197-1.778-.591-2.439-.381-.673-.991-1.188-1.83-1.544-.825-.355-1.905-.533-3.239-.533h-5.699l1.849-1.849-3.412 16.085zM146.627 98.294l1.848-1.849-2.687 12.693-.571-1.125h10.786l-.591 2.859h-10.786l1.029-1.124-2.706 12.787-1.087-1.848h13.57l-.61 2.858h-15.361l5.984-28.11h15.361l-.61 2.859h-13.569zM170.885 123.927c-1.613 0-3.017-.229-4.211-.686-1.195-.471-2.116-1.157-2.764-2.059-.648-.914-.972-2.045-.972-3.392 0-.623.045-1.194.134-1.715.101-.521.235-1.125.4-1.811h3.24c-.165.661-.286 1.22-.362 1.677a9.769 9.769 0 0 0-.096 1.353c0 1.347.42 2.3 1.258 2.859.851.559 2.084.839 3.697.839 1.373 0 2.599-.185 3.679-.553 1.079-.381 1.931-.959 2.553-1.734.623-.788.934-1.798.934-3.03 0-1.207-.495-2.198-1.486-2.973-.979-.775-2.313-1.436-4.003-1.982a16.767 16.767 0 0 1-3.468-1.601c-1.016-.648-1.823-1.43-2.42-2.344-.585-.915-.877-1.976-.877-3.183 0-1.36.26-2.567.781-3.621a7.745 7.745 0 0 1 2.211-2.668c.94-.724 2.033-1.27 3.278-1.64 1.245-.38 2.592-.571 4.04-.571 1.614 0 3.011.229 4.193.686 1.194.445 2.115 1.105 2.763 1.982.648.877.972 1.963.972 3.259 0 .559-.044 1.118-.133 1.677a26.285 26.285 0 0 1-.343 1.753h-3.259c.14-.584.241-1.105.305-1.562a8.71 8.71 0 0 0 .114-1.392c0-1.295-.425-2.198-1.277-2.706-.851-.508-2.077-.762-3.678-.762-1.296 0-2.452.171-3.468.514-1.017.344-1.817.883-2.402 1.62-.584.725-.876 1.671-.876 2.84 0 1.334.521 2.382 1.562 3.145 1.042.749 2.434 1.429 4.174 2.039 1.36.47 2.528 1.023 3.507 1.658.978.635 1.728 1.385 2.249 2.249.533.864.8 1.874.8 3.03 0 1.868-.476 3.462-1.429 4.783-.94 1.309-2.224 2.306-3.85 2.993-1.614.686-3.437 1.029-5.47 1.029zM98.652 144.076c-.517 0-.978-.081-1.383-.243a2.212 2.212 0 0 1-.959-.723c-.234-.315-.351-.697-.351-1.147 0-.518.146-.936.439-1.256a2.734 2.734 0 0 1 1.14-.735 5.921 5.921 0 0 1 1.486-.331c.755-.072 1.271-.135 1.545-.189.279-.059.419-.158.419-.297v-.014c0-.216-.115-.391-.345-.526-.225-.135-.535-.203-.931-.203-.419 0-.736.077-.952.23-.211.148-.317.376-.317.682h-2.376c0-.59.162-1.085.486-1.485.329-.405.77-.711 1.323-.918a5.266 5.266 0 0 1 1.856-.311c.648 0 1.249.097 1.802.29.558.194 1.008.489 1.35.885.347.396.52.9.52 1.512V142.24c0 .189.005.373.014.553.009.176.033.338.074.486.049.162.11.299.182.412.077.112.137.189.182.229h-2.355a1.686 1.686 0 0 1-.338-.567 3.563 3.563 0 0 1-.128-.519 3.954 3.954 0 0 1-.041-.608l.513.351a1.933 1.933 0 0 1-.621.803 3.067 3.067 0 0 1-1.005.52 4.223 4.223 0 0 1-1.229.176zm.689-1.749c.279 0 .547-.056.803-.168.256-.113.468-.293.634-.54.167-.248.25-.579.25-.993v-.492l.608.54a7.241 7.241 0 0 1-1.013.263c-.378.067-.747.119-1.107.155-.382.041-.668.106-.857.196a.46.46 0 0 0-.284.445c0 .198.082.347.243.446.167.099.408.148.723.148zM104.805 146.87v-10.118h2.41v10.118h-2.41zm4.577-2.781a2.775 2.775 0 0 1-1.559-.466 3.419 3.419 0 0 1-1.121-1.262 3.758 3.758 0 0 1-.418-1.775v-.122l.931-.02v.081c0 .315.072.587.216.817.149.225.338.398.567.52.234.117.475.175.722.175a1.55 1.55 0 0 0 1.067-.418c.31-.279.466-.72.466-1.323s-.156-1.038-.466-1.303a1.581 1.581 0 0 0-1.782-.23c-.23.113-.419.279-.567.5-.149.216-.223.484-.223.803l-.931-.061c0-.657.139-1.239.418-1.748a3.204 3.204 0 0 1 1.121-1.201 2.87 2.87 0 0 1 1.559-.446c.58 0 1.125.142 1.633.425.513.284.927.7 1.242 1.249.32.549.48 1.22.48 2.012 0 .832-.156 1.53-.466 2.092-.311.563-.72.988-1.229 1.276a3.357 3.357 0 0 1-1.66.425zM113.889 146.87v-10.118h2.41v10.118h-2.41zm4.576-2.781a2.777 2.777 0 0 1-1.559-.466 3.417 3.417 0 0 1-1.12-1.262 3.758 3.758 0 0 1-.419-1.775v-.122l.932-.02v.081c0 .315.072.587.216.817.148.225.337.398.567.52.234.117.474.175.722.175.4 0 .756-.139 1.066-.418.311-.279.466-.72.466-1.323s-.155-1.038-.466-1.303a1.585 1.585 0 0 0-1.782-.23 1.447 1.447 0 0 0-.567.5c-.148.216-.222.484-.222.803l-.932-.061c0-.657.14-1.239.419-1.748a3.201 3.201 0 0 1 1.12-1.201 2.873 2.873 0 0 1 1.559-.446c.581 0 1.125.142 1.634.425.513.284.927.7 1.242 1.249.319.549.479 1.22.479 2.012 0 .832-.155 1.53-.466 2.092-.31.563-.72.988-1.228 1.276a3.36 3.36 0 0 1-1.661.425z" fill="#41197F"/><path fill-rule="evenodd" clip-rule="evenodd" d="M112.856 31.631v8.987h-2.995V31.63h2.995z" fill="#8958A3"/><path fill-rule="evenodd" clip-rule="evenodd" d="M154.795 81.059c0-23.99-19.447-43.437-43.437-43.437-23.989 0-43.436 19.447-43.436 43.437h86.873z" fill="#41197F"/><path fill-rule="evenodd" clip-rule="evenodd" d="M77.828 64.372c6.134-12.303 18.843-20.758 33.53-20.758a1.497 1.497 0 1 1 0 2.995c-13.507 0-25.202 7.774-30.849 19.1a1.498 1.498 0 1 1-2.68-1.337z" fill="#fff"/><path d="M155.544 81.059h-88.37a3.744 3.744 0 1 0 0 7.489h88.37a3.744 3.744 0 0 0 0-7.49z" fill="#8958A3"/><path fill-rule="evenodd" clip-rule="evenodd" d="M105.367 30.133h11.983v4.494h-11.983v-4.494z" fill="#41197F"/><path fill-rule="evenodd" clip-rule="evenodd" d="M131.65.17c-5.861 0-10.612 3.538-10.612 10.719 0 7.18 16.021 23.329 18.726 23.329 2.705 0 18.726-16.148 18.726-23.329 0-7.18-4.751-10.719-10.611-10.719-3.255 0-6.168 1.481-8.115 3.812C137.818 1.65 134.905.17 131.65.17z" fill="#E44343"/><path fill-rule="evenodd" clip-rule="evenodd" d="M126.197 6.866c1.447-2.068 3.894-3.283 6.349-3.283a1.702 1.702 0 0 1 0 3.404c-1.381 0-2.77.703-3.56 1.832-.734 1.048-1.053 2.613-.032 4.655a1.702 1.702 0 1 1-3.045 1.523c-1.536-3.073-1.216-5.982.288-8.13z" fill="#fff"/></g><defs><filter id="a" x=".571" y=".17" width="218.429" height="180.821" filterUnits="userSpaceOnUse" color-interpolation-filters="sRGB"><feFlood flood-opacity="0" result="BackgroundImageFix"/><feColorMatrix in="SourceAlpha" values="0 0 0 0 0 0 0 0 0 0 0 0 0 0 0 0 0 0 127 0" result="hardAlpha"/><feOffset dx=".786" dy="13.357"/><feGaussianBlur stdDeviation="5.107"/><feComposite in2="hardAlpha" operator="out"/><feColorMatrix values="0 0 0 0 0.128867 0 0 0 0 0.0722222 0 0 0 0 0.216667 0 0 0 0.2 0"/><feBlend in2="BackgroundImageFix" result="effect1_dropShadow_4_107"/><feBlend in="SourceGraphic" in2="effect1_dropShadow_4_107" result="shape"/></filter></defs></svg>