<svg xmlns="http://www.w3.org/2000/svg" viewBox="0 0 100 100" style="enable-background:new 0 0 100 100"><g><circle style="fill:none;stroke:#fcc436;stroke-width:4px" cx="50" cy="50" r="48"/><path d="M48.148 55.052v13.31h-5.384c-.753 0-1.389.636-1.389 1.395v.928c0 .759.636 1.395 1.389 1.395h14.589c.753 0 1.389-.636 1.389-1.395v-.928c0-.759-.636-1.395-1.389-1.395h-5.384V54.937l19.799-24.694c.346-.406.405-.989.173-1.51-.231-.468-.751-.813-1.273-.813H29.332a1.39 1.39 0 0 0-1.274.813c-.23.467-.173 1.05.175 1.51l19.915 24.809zM65.863 31.7l-3.01 3.772H37.206l-3.01-3.772h31.667z" style="fill:#fcc436"/></g></svg>