<svg viewBox="0 0 100 100" style="enable-background:new 0 0 100 100" xmlns="http://www.w3.org/2000/svg"><circle style="fill:none;stroke:#fcc436;stroke-width:4px" cx="50" cy="50" r="48"/><path d="M50 73c-.223 0-.442-.066-.635-.188a69.406 69.406 0 0 1-11.085-9.119C30.794 56.095 27 48.526 27 41.193c0-3.037.864-5.992 2.464-8.433 1.599-2.442 3.852-4.239 6.425-5.132a11.235 11.235 0 0 1 7.871.174c2.54 1.006 4.727 2.903 6.24 5.414 1.513-2.511 3.7-4.408 6.24-5.414a11.235 11.235 0 0 1 7.871-.174c2.573.893 4.826 2.69 6.425 5.132 1.6 2.441 2.464 5.396 2.464 8.433 0 7.333-3.794 14.902-11.28 22.5a69.48 69.48 0 0 1-11.083 9.119A1.2 1.2 0 0 1 50 73z" fill="#FCC436"/></svg>