<svg xmlns="http://www.w3.org/2000/svg" viewBox="0 0 100 100" style="enable-background:new 0 0 100 100"><circle style="fill:none;stroke:#fcc436;stroke-width:4px" cx="50" cy="50" r="48"/><path d="M73.002 36v4a2.001 2.001 0 0 1-2 2H56.171a14.426 14.426 0 0 0-7.117-3.535A27.987 27.987 0 0 0 44.002 38c-.333 0-.666.011-1 .023V36a2.003 2.003 0 0 1 2-2h26a2.003 2.003 0 0 1 2 2zm-2 8h-13.02a14.858 14.858 0 0 1 2.864 6.902A4.989 4.989 0 0 1 63.002 55v4a4.963 4.963 0 0 1-.509 2.197 5.464 5.464 0 0 1-1.491 6.528V70a4.953 4.953 0 0 1-1.026 3h7.151a3.006 3.006 0 0 0 2.994-2.807l1.695-26.277a3.981 3.981 0 0 1-.814.084zm-2-16a1 1 0 0 0-1-1h-4a.992.992 0 0 0-.243.03l-16 4a1.001 1.001 0 0 0-.757.97h22v-4zM54.908 61.576a1.002 1.002 0 0 0-.906-.576h-10a1 1 0 0 0-.768 1.64l5 6a1 1 0 0 0 1.536 0l5-6c.248-.297.302-.712.138-1.064zM58.502 61h-1.679a3.01 3.01 0 0 1-.515 2.92L54.574 66h3.928c1.924 0 3.127-2.083 2.165-3.75A2.502 2.502 0 0 0 58.502 61zm-16.805 2.92a3.008 3.008 0 0 1-.515-2.92h-11.68c-1.925 0-3.128 2.084-2.165 3.75A2.497 2.497 0 0 0 29.502 66H43.43l-1.733-2.08zM52.907 68l-1.6 1.92a3 3 0 0 1-4.608.002L45.097 68H29.002v2a3 3 0 0 0 3 3h24a3 3 0 0 0 3-3v-2h-6.095zm7.095-13h-32a1 1 0 0 0-1 1v2a1 1 0 0 0 1 1h32a1 1 0 0 0 1-1v-2a1 1 0 0 0-1-1zm-1-2h-30c0-7.179 5.82-13 13-13h4c7.179 0 13 5.821 13 13zm-21-4.5a1.5 1.5 0 1 0-3 .001 1.5 1.5 0 0 0 3-.001zm4-3a1.5 1.5 0 1 0-3 .001 1.5 1.5 0 0 0 3-.001zm3.5 3a1.5 1.5 0 1 0-3 .001 1.5 1.5 0 0 0 3-.001zm3.5-3a1.5 1.5 0 1 0-3 .001 1.5 1.5 0 0 0 3-.001zm4 3a1.5 1.5 0 1 0-3 .001 1.5 1.5 0 0 0 3-.001z" fill="#fcc436" class="fill-000000"/></svg>