<svg viewBox="0 0 100 100" style="enable-background:new 0 0 100 100" xmlns="http://www.w3.org/2000/svg"><g><circle style="fill:none;stroke:#fcc436;stroke-width:4px" cx="50" cy="50" r="48"/><path d="M50.879 30.762c-10.06 0-18.215 8.154-18.215 18.215 0 10.058 8.155 18.215 18.215 18.215 10.061 0 18.215-8.157 18.215-18.215 0-10.061-8.154-18.215-18.215-18.215zm0 32.035c-7.621 0-13.82-6.2-13.82-13.82 0-7.621 6.199-13.821 13.82-13.821s13.82 6.2 13.82 13.821c0 7.62-6.199 13.82-13.82 13.82z" style="fill:#fcc436"/><path d="M50.879 38.86c-5.578 0-10.117 4.539-10.117 10.117 0 5.578 4.539 10.115 10.117 10.115 5.578 0 10.117-4.537 10.117-10.115S56.457 38.86 50.879 38.86zm25.474 11.643V28.369a.498.498 0 0 0-.896-.3 20.955 20.955 0 0 0-4.254 12.658v8.097c0 .928.752 1.682 1.68 1.682h.701c-.691 7.136-1.147 17.119-1.147 18.288 0 1.842 1.133 3.334 2.532 3.334 1.398 0 2.531-1.492 2.531-3.334 0-1.169-.456-11.153-1.147-18.291zM29.85 46.117a4.843 4.843 0 0 0 2.338-4.146l-.695-11.347a.82.82 0 0 0-1.637.092l.452 9.1a.926.926 0 0 1-1.854 0l-.224-9.097a.887.887 0 0 0-1.772 0l-.227 9.097a.926.926 0 0 1-1.851 0l.452-9.1a.82.82 0 0 0-1.637-.092L22.5 41.971c0 1.758.936 3.296 2.338 4.146a2.738 2.738 0 0 1 1.302 2.643c-.791 7.129-1.328 18.766-1.328 20.034 0 1.842 1.134 3.334 2.531 3.334 1.398 0 2.531-1.492 2.531-3.334 0-1.268-.536-12.905-1.327-20.034a2.735 2.735 0 0 1 1.303-2.643z" style="fill:#fcc436"/></g></svg>