<svg width="43" height="40" fill="none" xmlns="http://www.w3.org/2000/svg"><path fill-rule="evenodd" clip-rule="evenodd" d="M21.302 17.31v-2.662 2.663z" fill="#8958A3"/><path d="M21.302 17.31v-2.662" stroke="#8958A3" stroke-width="1.331" stroke-linecap="square"/><path fill-rule="evenodd" clip-rule="evenodd" d="M40.607 35.95c0-10.662-8.643-19.305-19.305-19.305-10.662 0-19.305 8.643-19.305 19.305h38.61z" fill="#41197F"/><path d="M21.302 19.974c-6.265 0-11.688 3.606-14.306 8.857" stroke="#fff" stroke-width="1.331" stroke-linecap="round"/><path d="M40.94 35.95H1.664a1.664 1.664 0 1 0 0 3.329H40.94a1.664 1.664 0 0 0 0-3.329z" fill="#8958A3"/><path fill-rule="evenodd" clip-rule="evenodd" d="M18.64 13.317h5.325v1.997H18.64v-1.997z" fill="#41197F"/><path fill-rule="evenodd" clip-rule="evenodd" d="M30.32 0c-2.604 0-4.716 1.572-4.716 4.764 0 3.191 7.12 10.368 8.323 10.368 1.202 0 8.323-7.177 8.323-10.368C42.25 1.572 40.138 0 37.533 0a4.687 4.687 0 0 0-3.606 1.694A4.687 4.687 0 0 0 30.32 0z" fill="#E44343"/><path d="M30.719 2.273c-1.705 0-3.41 1.705-2.273 3.978" stroke="#fff" stroke-width="1.513" stroke-linecap="round"/></svg>